<svg xmlns="http://www.w3.org/2000/svg" viewBox="0 0 425.2 425.2">
  <style>
    /* El color Terracota para fondos claros */
    .brand-color { fill: #BF5627; }
    .text-color { fill: #1D1D1B; }

    /* Ajuste para Dark Mode: aclaramos el terracota y pasamos la K a blanco */
    @media (prefers-color-scheme: dark) {
      .brand-color { fill: #E67E4D; } 
      .text-color { fill: #FFFFFF; }
    }
  </style>
<g class="brand-color">
	<path d="M404.2,425.2H21c-12,0-21-10-21-21V21.1c0-11,10-21,21-21h383.1c12,0,21,10,21,21v383.1 C425.2,416.2,416.2,425.2,404.2,425.2z"/>
</g>

<g class="text-color">
	<path d="M243.1,168.1l57-135c5-5,10-9,16-14c7.2-6.5,13.3-12.9,18-19h-66.1l-3,1l-74,27l10,28l35-6l-66,159.1L129,99 c6-6,11-12,17-18c7-8,13-16,19-23l-9-16l-50,18L19,93l-19,7.1v33.6l32-6.7l101,273.1c-6,6-11,11-17,17c-2.3,2.7-4.5,5.4-6.7,8 h85.2l16.5-6l31-11l2-1l41-15l-10-28l-44,9l-35-94l9-22l156,107l64.1-24.3v-53.2L243.1,168.1z"/>
</g>

</svg>
